<svg width="34" height="27" viewBox="0 0 34 27" fill="none" xmlns="http://www.w3.org/2000/svg">
<path d="M1 4.57143C1 2.59898 2.59188 1 4.55556 1H29.4444C31.4081 1 33 2.59898 33 4.57143V20.6429C33 22.1222 32.403 23.4615 31.4379 24.4309C30.4728 25.4004 29.1394 26 27.6667 26H6.33333C4.86057 26 3.52724 25.4004 2.5621 24.4309C1.59695 23.4615 1 22.1222 1 20.6429V4.57143Z" fill="#F2F2F2"/>
<path d="M2.77778 2.78571L13.4444 13.5M31.2222 2.78571L20.5556 13.5M13.4444 13.5L14.4858 14.546C15.8744 15.9408 18.1256 15.9408 19.5142 14.546L20.5556 13.5M13.4444 13.5L2.5621 24.4309M20.5556 13.5L31.4379 24.4309M31.4379 24.4309C32.403 23.4615 33 22.1222 33 20.6429V4.57143C33 2.59898 31.4081 1 29.4444 1H4.55556C2.59188 1 1 2.59898 1 4.57143V20.6429C1 22.1222 1.59695 23.4615 2.5621 24.4309M31.4379 24.4309C30.4728 25.4004 29.1394 26 27.6667 26H6.33333C4.86057 26 3.52724 25.4004 2.5621 24.4309" stroke="#151515" stroke-width="1.5" stroke-linecap="round"/>
</svg>
