<svg xmlns="http://www.w3.org/2000/svg" xmlns:xlink="http://www.w3.org/1999/xlink" width="500" zoomAndPan="magnify" viewBox="0 0 375 374.999991" height="500" preserveAspectRatio="xMidYMid meet" version="1.0"><defs><clipPath id="4402023d98"><path d="M 22.207031 0 L 352.957031 0 L 352.957031 374 L 22.207031 374 Z M 22.207031 0 " clip-rule="nonzero"/></clipPath></defs><g clip-path="url(#4402023d98)"><path fill="#e44d26" d="M 52.230469 336.335938 L 22.113281 -1.464844 L 353.050781 -1.464844 L 322.90625 336.289062 L 187.371094 373.84375 Z M 52.230469 336.335938 " fill-opacity="1" fill-rule="nonzero"/></g><path fill="#f16529" d="M 297.09375 314.777344 L 322.859375 26.15625 L 187.582031 26.15625 L 187.582031 345.144531 Z M 297.09375 314.777344 " fill-opacity="1" fill-rule="nonzero"/><path fill="#ebebeb" d="M 187.441406 67.585938 L 83.6875 67.585938 L 94.867188 192.871094 L 187.582031 192.871094 L 187.582031 151.445312 L 132.761719 151.445312 L 128.972656 109.023438 L 187.582031 109.023438 L 187.582031 67.585938 Z M 187.582031 258.902344 L 187.40625 258.949219 L 141.265625 246.492188 L 138.332031 213.453125 L 96.71875 213.453125 L 102.523438 278.5 L 187.394531 301.960938 L 187.582031 301.902344 Z M 187.582031 258.902344 " fill-opacity="1" fill-rule="nonzero"/><path fill="#ffffff" d="M 187.441406 192.871094 L 238.460938 192.871094 L 233.769531 246.585938 L 187.558594 259.054688 L 187.558594 302.160156 L 272.496094 278.617188 L 283.875 151.421875 L 187.582031 151.421875 Z M 290.230469 78.703125 L 291.214844 67.585938 L 187.417969 67.585938 L 187.417969 109.011719 L 287.484375 109.011719 L 288.308594 99.699219 Z M 290.230469 78.703125 " fill-opacity="1" fill-rule="nonzero"/></svg>