<svg xmlns="http://www.w3.org/2000/svg" xmlns:xlink="http://www.w3.org/1999/xlink" width="500" zoomAndPan="magnify" viewBox="0 0 375 374.999991" height="500" preserveAspectRatio="xMidYMid meet" version="1.0"><path fill="#0868ac" d="M 32.988281 82.125 C 0.730469 128.515625 4.71875 188.855469 29.382812 238.277344 C 29.953125 239.464844 30.582031 240.625 31.183594 241.789062 L 32.324219 244.011719 C 32.554688 244.445312 32.804688 244.867188 33.042969 245.289062 C 33.464844 246.085938 33.898438 246.816406 34.332031 247.589844 L 36.691406 251.625 L 38.035156 253.835938 L 40.769531 258.113281 L 41.933594 259.914062 C 43.222656 261.828125 44.53125 263.742188 45.890625 265.613281 L 46.664062 266.660156 C 47.839844 268.273438 49.039062 269.871094 50.265625 271.449219 L 51.632812 273.179688 L 54.960938 277.285156 L 56.238281 278.8125 C 57.753906 280.601562 59.316406 282.378906 60.878906 284.109375 C 61.039062 284.28125 61.105469 284.339844 61.152344 284.40625 C 62.699219 286.085938 64.273438 287.742188 65.871094 289.375 L 67.386719 290.902344 L 71.148438 294.597656 L 72.6875 296.078125 C 74.378906 297.675781 76.101562 299.242188 77.847656 300.773438 L 83.503906 305.5625 L 85.441406 307.113281 L 89.351562 310.167969 L 91.4375 311.761719 L 95.824219 314.910156 L 97.875 316.355469 C 99.277344 317.324219 100.703125 318.25 102.140625 319.171875 L 103.984375 320.402344 C 106.1875 321.800781 108.410156 323.160156 110.652344 324.484375 L 112.5 325.625 L 117.515625 328.425781 C 118.425781 328.917969 119.363281 329.382812 120.285156 329.851562 L 123.863281 331.710938 L 124.695312 332.109375 L 126.179688 332.816406 L 131.855469 335.4375 L 133.050781 335.972656 C 135.242188 336.925781 137.449219 337.84375 139.671875 338.71875 L 141.269531 339.359375 L 147.515625 341.671875 L 148.3125 341.945312 C 150.621094 342.738281 152.9375 343.5 155.265625 344.226562 L 156.953125 344.726562 C 159.234375 345.445312 161.695312 346.320312 164.132812 346.753906 C 320.21875 375.214844 365.539062 252.949219 365.539062 252.949219 C 327.46875 302.554688 259.878906 315.636719 195.707031 301.070312 C 193.277344 300.523438 190.917969 299.773438 188.558594 299.066406 L 186.78125 298.53125 C 184.472656 297.820312 182.179688 297.070312 179.898438 296.285156 L 178.953125 295.941406 C 176.921875 295.222656 174.898438 294.472656 172.886719 293.695312 L 171.179688 293.011719 C 168.972656 292.144531 166.789062 291.234375 164.625 290.277344 L 163.3125 289.707031 L 157.785156 287.132812 L 156.1875 286.367188 C 154.753906 285.683594 153.339844 284.921875 151.914062 284.089844 L 149.066406 282.605469 C 147.332031 281.695312 145.644531 280.714844 143.9375 279.734375 L 142.203125 278.765625 C 139.960938 277.441406 137.738281 276.078125 135.535156 274.683594 C 134.929688 274.296875 134.339844 273.886719 133.734375 273.488281 L 128.992188 270.332031 C 128.46875 269.988281 127.851562 269.601562 127.464844 269.257812 L 122.976562 266.011719 L 120.980469 264.507812 L 116.933594 261.335938 L 115.132812 259.890625 L 110.09375 255.636719 C 109.910156 255.476562 109.722656 255.324219 109.523438 255.183594 L 104.226562 250.359375 L 102.742188 248.925781 L 98.957031 245.164062 L 97.476562 243.679688 C 95.882812 242.050781 94.332031 240.410156 92.917969 238.734375 C 92.839844 238.65625 92.757812 238.574219 92.691406 238.484375 C 91.074219 236.710938 89.496094 234.910156 87.949219 233.082031 L 86.808594 231.597656 L 83.390625 227.382812 L 82.25 225.820312 L 78.304688 220.578125 C 42.539062 172.113281 29.75 105.113281 58.175781 50.175781 M 133.175781 43.050781 C 109.832031 76.640625 111.097656 121.699219 129.300781 157.125 C 132.355469 163.101562 135.796875 168.847656 139.628906 174.359375 C 143.125 179.375 147.003906 185.335938 151.640625 189.359375 C 153.328125 191.214844 155.082031 193.003906 156.882812 194.792969 L 158.253906 196.164062 C 159.996094 197.863281 161.777344 199.519531 163.597656 201.132812 C 163.679688 201.1875 163.734375 201.269531 163.824219 201.324219 C 165.902344 203.148438 167.996094 204.746094 170.128906 206.546875 L 171.542969 207.652344 C 173.679688 209.300781 175.863281 210.894531 178.085938 212.429688 L 178.277344 212.566406 C 179.257812 213.25 180.261719 213.875 181.265625 214.535156 C 181.742188 214.84375 182.199219 215.175781 182.679688 215.472656 C 184.273438 216.492188 185.886719 217.480469 187.523438 218.433594 L 188.207031 218.832031 L 192.492188 221.113281 C 192.992188 221.398438 193.632812 221.636719 194.019531 221.910156 L 197.015625 223.460938 C 197.164062 223.542969 197.324219 223.597656 197.472656 223.667969 C 199.53125 224.691406 201.613281 225.660156 203.71875 226.574219 L 205.085938 227.144531 C 206.785156 227.863281 208.496094 228.554688 210.214844 229.21875 L 212.40625 230.015625 C 213.964844 230.582031 215.535156 231.125 217.113281 231.644531 L 219.242188 232.328125 C 221.488281 233.011719 223.804688 233.925781 226.046875 234.300781 C 346.5625 254.269531 374.382812 161.351562 374.382812 161.351562 C 349.308594 197.484375 300.753906 214.695312 248.914062 201.246094 C 246.621094 200.644531 244.347656 199.984375 242.085938 199.273438 C 241.402344 199.070312 240.71875 198.839844 240.035156 198.613281 L 235.246094 196.972656 L 232.96875 196.175781 C 231.246094 195.511719 229.535156 194.820312 227.839844 194.097656 L 226.449219 193.53125 C 224.328125 192.609375 222.230469 191.636719 220.15625 190.613281 L 217 189.015625 L 215.175781 188.082031 C 213.832031 187.351562 212.503906 186.605469 211.183594 185.835938 L 210.226562 185.300781 C 208.597656 184.34375 206.984375 183.355469 205.394531 182.335938 C 204.90625 182.027344 204.425781 181.6875 203.9375 181.367188 L 200.800781 179.292969 C 198.59375 177.761719 196.429688 176.175781 194.304688 174.527344 L 192.824219 173.390625 C 170.027344 155.472656 152.15625 130.988281 143.605469 103.246094 C 134.648438 74.464844 136.574219 42.152344 152.097656 15.933594 M 217.433594 13.847656 C 203.683594 34.195312 202.316406 59.246094 211.871094 81.609375 C 221.933594 105.351562 242.566406 123.964844 266.648438 132.902344 L 269.636719 134.042969 L 270.957031 134.453125 L 275.253906 135.59375 C 341.796875 148.449219 359.828125 101.445312 364.652344 94.523438 C 348.839844 117.289062 322.273438 122.746094 289.671875 114.835938 C 287.097656 114.210938 284.269531 113.273438 281.785156 112.398438 C 278.59375 111.265625 275.472656 109.972656 272.417969 108.511719 C 266.609375 105.71875 261.132812 102.378906 255.992188 98.492188 C 226.824219 76.367188 208.699219 34.035156 227.734375 -0.34375 " fill-opacity="1" fill-rule="nonzero"/></svg>