<svg width="35" height="26" viewBox="0 0 35 26" fill="none" xmlns="http://www.w3.org/2000/svg">
<path d="M1 4.42857C1 2.53502 2.64162 1 4.66667 1H30.3333C32.3584 1 34 2.53502 34 4.42857V19.8571C34 21.2773 33.3844 22.563 32.3891 23.4937C31.3938 24.4244 30.0188 25 28.5 25H6.5C4.98122 25 3.60622 24.4244 2.61091 23.4937C1.61561 22.563 1 21.2773 1 19.8571V4.42857Z" fill="#F2F2F2"/>
<path d="M2.83333 2.71429L13.8333 13M32.1667 2.71429L21.1667 13M13.8333 13L14.9073 14.0042C16.3392 15.3431 18.6608 15.3431 20.0927 14.0042L21.1667 13M13.8333 13L2.61091 23.4937M21.1667 13L32.3891 23.4937M32.3891 23.4937C33.3844 22.563 34 21.2773 34 19.8571V4.42857C34 2.53502 32.3584 1 30.3333 1H4.66667C2.64162 1 1 2.53502 1 4.42857V19.8571C1 21.2773 1.61561 22.563 2.61091 23.4937M32.3891 23.4937C31.3938 24.4244 30.0188 25 28.5 25H6.5C4.98122 25 3.60622 24.4244 2.61091 23.4937" stroke="#151515" stroke-width="1.5" stroke-linecap="round"/>
</svg>
