<svg xmlns="http://www.w3.org/2000/svg" xmlns:xlink="http://www.w3.org/1999/xlink" width="500" zoomAndPan="magnify" viewBox="0 0 375 374.999991" height="500" preserveAspectRatio="xMidYMid meet" version="1.0"><path fill="#24525e" d="M 12.019531 212.863281 C 15.242188 208.839844 19.496094 209.816406 23.695312 210.277344 C 26.746094 210.679688 29.679688 211.425781 32.785156 211.425781 C 34.738281 211.484375 36.003906 210.679688 37.269531 209.296875 C 39.6875 206.652344 41.410156 203.488281 43.941406 200.957031 C 48.023438 196.875 52.742188 193.941406 58.261719 192.042969 C 67.523438 188.824219 77.011719 186.234375 86.15625 182.554688 C 93.863281 179.390625 99.730469 174.328125 103.871094 167.082031 C 106.574219 162.367188 109.222656 157.59375 112.558594 153.222656 C 117.101562 147.46875 122.96875 144.480469 130.273438 144.535156 C 134.125 144.59375 137.460938 142.925781 140.855469 141.546875 C 141.144531 141.546875 141.429688 141.546875 141.71875 141.546875 C 143.15625 142.0625 143.617188 143.214844 143.617188 144.652344 C 143.617188 148.5625 142.292969 151.957031 139.300781 154.484375 C 137.289062 156.152344 135.160156 157.707031 133.03125 159.203125 C 130.101562 161.273438 128.316406 163.976562 127.453125 167.484375 C 125.785156 174.675781 124.464844 181.980469 122.164062 189.109375 C 120.148438 195.4375 117.675781 201.535156 112.960938 206.539062 C 111.523438 208.089844 109.855469 209.355469 107.957031 210.390625 C 106.863281 210.910156 106.289062 210.910156 106.460938 209.472656 C 106.574219 208.378906 106.574219 207.285156 106.347656 206.136719 C 105.714844 207.515625 105.136719 208.839844 104.503906 210.21875 C 100.25 218.847656 93.980469 224.941406 84.375 227.128906 C 84.261719 227.1875 84.085938 227.242188 83.972656 227.242188 C 82.878906 227.359375 81.382812 227.933594 80.867188 227.128906 C 80.234375 226.09375 81.84375 225.460938 82.417969 224.65625 C 87.019531 218.730469 90.242188 212.289062 90.875 204.640625 C 90.183594 204.582031 90.242188 205.15625 90.125 205.445312 C 89.953125 205.730469 89.839844 206.136719 89.722656 206.480469 C 89.089844 208.207031 88.574219 209.929688 87.597656 211.484375 C 86.617188 213.09375 85.238281 213.898438 83.339844 213.957031 C 78.394531 214.070312 73.445312 213.496094 68.617188 212.808594 C 64.300781 212.230469 59.929688 211.886719 55.558594 212.230469 C 50.613281 212.578125 46.300781 214.820312 42.332031 217.523438 C 37.730469 220.628906 32.839844 223.160156 27.835938 225.460938 C 25.59375 226.496094 23.179688 227.1875 20.820312 227.816406 C 19.039062 227.816406 17.371094 227.816406 15.585938 227.816406 C 14.839844 226.667969 15.183594 225.574219 15.816406 224.597656 C 16.738281 223.21875 17.65625 221.835938 18.636719 220.515625 C 19.152344 219.824219 19.671875 219.132812 18.636719 218.5 C 16.335938 217.121094 14.550781 214.992188 12.078125 213.898438 C 12.019531 213.496094 12.019531 213.152344 12.019531 212.863281 Z M 12.019531 212.863281 " fill-opacity="1" fill-rule="nonzero"/><path fill="#24525e" d="M 357.113281 194.976562 C 355.675781 200.210938 353.316406 202.050781 347.851562 202.570312 C 341.699219 203.085938 335.488281 202.683594 329.332031 202.855469 C 327.894531 202.914062 327.203125 202.339844 327.261719 200.785156 C 327.320312 191.46875 327.320312 182.152344 327.261719 172.890625 C 327.261719 171.742188 327.550781 170.878906 328.929688 170.878906 C 335.542969 170.992188 342.214844 170.359375 348.773438 171.28125 C 354.121094 172.027344 356.824219 175.824219 355.789062 181.058594 C 355.328125 183.359375 353.949219 184.910156 351.304688 185.945312 C 354.984375 187.097656 356.480469 189.570312 357.113281 192.734375 C 357.113281 193.539062 357.113281 194.285156 357.113281 194.976562 Z M 338.9375 199.636719 C 341.699219 199.636719 344.460938 199.75 347.164062 199.289062 C 350.441406 198.773438 352.167969 197.105469 352.28125 194.058594 C 352.394531 190.605469 351.015625 188.707031 347.566406 188.074219 C 342.675781 187.210938 337.730469 187.84375 332.785156 187.730469 C 331.691406 187.671875 331.519531 188.476562 331.519531 189.339844 C 331.519531 192.160156 331.574219 195.035156 331.519531 197.796875 C 331.460938 199.117188 331.976562 199.636719 333.300781 199.578125 C 335.140625 199.578125 337.039062 199.636719 338.9375 199.636719 Z M 339.742188 184.453125 C 339.742188 184.394531 339.742188 184.335938 339.742188 184.335938 C 341.984375 184.335938 344.230469 184.453125 346.53125 184.277344 C 350.097656 183.992188 351.707031 181.921875 351.359375 178.414062 C 351.074219 175.710938 349.347656 174.269531 345.953125 174.15625 C 341.699219 174.042969 337.5 174.097656 333.300781 174.097656 C 332.152344 174.097656 331.519531 174.445312 331.519531 175.710938 C 331.574219 178.066406 331.574219 180.367188 331.519531 182.726562 C 331.460938 184.105469 332.207031 184.507812 333.417969 184.453125 C 335.542969 184.453125 337.671875 184.453125 339.742188 184.453125 Z M 339.742188 184.453125 " fill-opacity="1" fill-rule="nonzero"/><path fill="#24525e" d="M 148.390625 181.574219 C 147.066406 186.753906 145.800781 191.8125 144.535156 196.875 C 144.363281 197.621094 144.191406 198.253906 144.019531 199.003906 C 143.039062 203.085938 143.039062 202.972656 138.785156 202.855469 C 136.886719 202.800781 136.597656 202.109375 137 200.441406 C 139.070312 192.617188 141.085938 184.855469 143.039062 176.976562 C 143.269531 176.113281 143.5 175.308594 143.730469 174.445312 C 144.652344 170.648438 144.652344 170.761719 148.503906 170.761719 C 150.171875 170.761719 150.746094 171.683594 151.324219 172.949219 C 154.199219 179.449219 157.1875 185.945312 160.121094 192.445312 C 160.351562 192.964844 160.410156 193.597656 161.273438 194 C 162.710938 190.835938 164.089844 187.671875 165.527344 184.507812 C 167.3125 180.539062 169.210938 176.570312 170.878906 172.546875 C 171.972656 169.957031 174.097656 170.878906 175.9375 170.761719 C 177.722656 170.648438 177.78125 172.144531 178.066406 173.292969 C 180.425781 182.324219 182.726562 191.355469 185.085938 200.324219 C 185.601562 202.222656 185.085938 202.914062 183.1875 202.742188 C 182.898438 202.683594 182.609375 202.742188 182.324219 202.742188 C 178.929688 202.742188 178.929688 202.742188 178.183594 199.519531 C 176.917969 194.285156 175.652344 189.054688 174.386719 183.820312 C 174.214844 183.128906 174.15625 182.382812 173.582031 181.75 C 172.660156 182.496094 172.429688 183.472656 172.027344 184.335938 C 169.554688 189.742188 167.023438 195.148438 164.722656 200.671875 C 163.859375 202.683594 162.480469 202.742188 160.699219 202.855469 C 158.914062 202.914062 157.9375 202.28125 157.246094 200.613281 C 154.832031 194.917969 152.242188 189.339844 149.65625 183.703125 C 149.425781 183.015625 149.308594 182.152344 148.390625 181.574219 Z M 148.390625 181.574219 " fill-opacity="1" fill-rule="nonzero"/><path fill="#24525e" d="M 207.746094 181.75 C 208.320312 180.886719 207.628906 179.503906 209.011719 179.332031 C 210.621094 179.160156 212.347656 178.816406 213.898438 179.621094 C 214.476562 179.90625 214.359375 180.65625 214.359375 181.171875 C 214.359375 187.730469 214.359375 194.230469 214.417969 200.84375 C 214.417969 202.222656 213.84375 202.855469 212.460938 202.855469 C 211.945312 202.855469 211.425781 202.855469 210.910156 202.855469 C 209.125 202.972656 207.628906 202.800781 207.917969 200.324219 C 200.097656 204.523438 193.195312 203.777344 189.167969 198.429688 C 185.601562 193.769531 185.890625 186.636719 189.570312 182.4375 C 192.90625 178.757812 201.246094 176.859375 207.746094 181.75 Z M 200.84375 183.703125 C 196.472656 183.703125 193.480469 186.636719 193.539062 190.894531 C 193.539062 195.265625 196.585938 198.3125 200.957031 198.3125 C 205.273438 198.3125 208.148438 195.496094 208.148438 191.066406 C 208.148438 186.523438 205.328125 183.703125 200.84375 183.703125 Z M 200.84375 183.703125 " fill-opacity="1" fill-rule="nonzero"/><path fill="#24525e" d="M 274.175781 181.691406 C 274.75 181 274.0625 179.621094 275.324219 179.449219 C 276.992188 179.21875 278.660156 178.988281 280.214844 179.621094 C 280.847656 179.90625 280.730469 180.597656 280.730469 181.171875 C 280.730469 187.789062 280.730469 194.402344 280.730469 201.015625 C 280.730469 202.339844 280.214844 202.914062 278.949219 202.914062 C 278.375 202.914062 277.800781 202.914062 277.167969 202.914062 C 275.5 202.914062 273.714844 203.085938 274.347656 200.324219 C 267.273438 204.582031 260.085938 204.007812 255.886719 199.0625 C 252.089844 194.6875 251.917969 187.441406 255.484375 183.070312 C 259.738281 178.011719 266.640625 177.492188 274.175781 181.691406 Z M 267.332031 183.703125 C 262.84375 183.644531 259.855469 186.636719 259.910156 191.007812 C 259.96875 195.207031 263.019531 198.253906 267.214844 198.371094 C 271.644531 198.429688 274.691406 195.496094 274.75 191.125 C 274.808594 186.753906 271.761719 183.761719 267.332031 183.703125 Z M 267.332031 183.703125 " fill-opacity="1" fill-rule="nonzero"/><path fill="#24525e" d="M 289.359375 186.695312 C 289.359375 182.207031 289.359375 177.664062 289.359375 173.179688 C 289.359375 171.855469 289.53125 170.820312 291.199219 170.878906 C 296.894531 171.050781 302.589844 170.476562 308.226562 171.222656 C 316.851562 172.429688 322.199219 178.816406 321.914062 187.328125 C 321.625 196.011719 315.933594 201.820312 307.304688 202.570312 C 302.070312 203.027344 296.835938 202.683594 291.601562 202.855469 C 290.050781 202.914062 289.417969 202.28125 289.417969 200.671875 C 289.417969 196.011719 289.359375 191.355469 289.359375 186.695312 Z M 293.902344 186.636719 C 293.902344 190.203125 293.902344 193.769531 293.902344 197.335938 C 293.902344 198.253906 293.902344 199.289062 295.109375 199.289062 C 299.539062 199.289062 303.96875 199.921875 308.398438 198.886719 C 314.378906 197.449219 317.3125 192.5625 316.851562 185.257812 C 316.507812 179.503906 312.882812 175.535156 307.1875 174.558594 C 303.449219 173.925781 299.65625 174.328125 295.859375 174.15625 C 294.304688 174.042969 293.789062 174.675781 293.847656 176.167969 C 293.960938 179.621094 293.902344 183.1875 293.902344 186.636719 Z M 293.902344 186.636719 " fill-opacity="1" fill-rule="nonzero"/><path fill="#24525e" d="M 228.046875 182.726562 C 230.808594 179.734375 233.800781 178.183594 237.769531 179.046875 C 238.632812 179.21875 239.78125 179.273438 239.378906 180.539062 C 238.976562 181.921875 239.320312 183.761719 237.25 184.164062 C 236.734375 184.277344 236.273438 184.105469 235.699219 184.050781 C 231.269531 183.761719 228.046875 186.464844 227.875 190.894531 C 227.761719 194 227.761719 197.164062 227.816406 200.269531 C 227.875 202.050781 227.242188 202.855469 225.34375 202.855469 C 221.144531 202.914062 221.144531 202.972656 221.144531 198.714844 C 221.144531 193.019531 221.203125 187.328125 221.089844 181.691406 C 221.03125 179.734375 221.777344 178.988281 223.675781 179.21875 C 223.90625 179.21875 224.136719 179.21875 224.367188 179.21875 C 227.644531 179.21875 227.644531 179.21875 228.046875 182.726562 Z M 228.046875 182.726562 " fill-opacity="1" fill-rule="nonzero"/><path fill="#24525e" d="M 242.195312 189.109375 C 242.195312 186.578125 242.253906 183.992188 242.140625 181.460938 C 242.082031 179.679688 242.828125 179.046875 244.496094 179.21875 C 244.726562 179.21875 244.957031 179.21875 245.1875 179.21875 C 248.867188 179.160156 248.867188 179.21875 248.867188 182.785156 C 248.867188 186.925781 248.867188 191.066406 248.867188 195.207031 C 248.867188 196.355469 248.8125 197.277344 250.421875 197.851562 C 251.800781 198.371094 251.628906 200.324219 251.628906 201.707031 C 251.628906 202.855469 250.480469 202.800781 249.617188 202.914062 C 245.074219 203.777344 242.601562 201.992188 242.253906 197.335938 C 242.023438 194.6875 242.195312 191.929688 242.195312 189.109375 Z M 242.195312 189.109375 " fill-opacity="1" fill-rule="nonzero"/><path fill="#24525e" d="M 245.359375 170.359375 C 247.429688 170.304688 248.8125 171.625 248.867188 173.582031 C 248.925781 175.480469 247.429688 177.03125 245.417969 177.03125 C 243.40625 177.03125 242.023438 175.59375 242.023438 173.582031 C 242.140625 171.566406 243.347656 170.417969 245.359375 170.359375 Z M 245.359375 170.359375 " fill-opacity="1" fill-rule="nonzero"/></svg>