<svg xmlns="http://www.w3.org/2000/svg" xmlns:xlink="http://www.w3.org/1999/xlink" width="500" zoomAndPan="magnify" viewBox="0 0 375 374.999991" height="500" preserveAspectRatio="xMidYMid meet" version="1.0"><defs><clipPath id="d64d21cd5a"><path d="M 97 229 L 154 229 L 154 312.328125 L 97 312.328125 Z M 97 229 " clip-rule="nonzero"/></clipPath></defs><g clip-path="url(#d64d21cd5a)"><path fill="#105e86" d="M 103.6875 303.960938 C 101.449219 303.960938 99.457031 303.824219 97.769531 303.5625 L 97.769531 310.996094 C 101.234375 312.375 104.101562 313.0625 106.445312 313.0625 C 115.230469 313.0625 123.324219 307.699219 130.710938 296.929688 C 140.152344 282.988281 147.785156 260.601562 153.578125 229.835938 L 140.089844 229.835938 C 137.683594 248.726562 133.421875 266.222656 127.292969 282.21875 C 127.722656 279.019531 126.664062 273.394531 124.148438 265.335938 L 113.007812 229.835938 L 99.058594 229.835938 L 114.601562 277.316406 C 116.945312 284.441406 118.125 289.191406 118.125 291.519531 C 118.125 294.875 116.625 297.910156 113.605469 300.621094 C 111.089844 302.828125 107.796875 303.960938 103.6875 303.960938 Z M 103.6875 303.960938 " fill-opacity="1" fill-rule="nonzero"/></g><path fill="#de8a03" d="M 302.183594 208.03125 L 302.183594 291.214844 L 342.496094 291.214844 L 342.496094 280.980469 L 315.746094 280.980469 L 315.746094 208.03125 Z M 302.183594 208.03125 " fill-opacity="1" fill-rule="nonzero"/><path fill="#105e86" d="M 19.507812 224.871094 L 19.660156 224.871094 L 41.121094 291.214844 L 51.925781 291.214844 L 73.539062 224.871094 L 73.660156 224.871094 C 75.914062 245.632812 77.339844 267.710938 77.796875 291.214844 L 92.054688 291.214844 C 91.378906 266.085938 89.203125 238.335938 85.492188 208.03125 L 68.710938 208.03125 L 48.0625 269.164062 L 47.941406 269.164062 L 27.476562 208.03125 L 9.851562 208.03125 C 6.507812 233.894531 4.410156 261.644531 3.566406 291.214844 L 16.519531 291.214844 C 16.933594 266.882812 17.929688 244.773438 19.507812 224.871094 Z M 19.507812 224.871094 " fill-opacity="1" fill-rule="nonzero"/><path fill="#de8a03" d="M 289.875 248.066406 C 289.875 220.550781 278.871094 206.757812 256.84375 206.757812 C 246.050781 206.757812 237.621094 210.253906 231.550781 217.238281 C 224.960938 224.886719 221.652344 236.132812 221.652344 251.007812 C 221.652344 265.625 224.5625 276.367188 230.449219 283.199219 C 235.8125 289.375 243.890625 292.457031 254.710938 292.457031 C 258.757812 292.457031 262.46875 291.964844 265.824219 290.984375 L 286.132812 302.597656 L 291.652344 293.253906 L 291.605469 293.253906 L 276.035156 285.730469 C 277.414062 284.578125 278.746094 283.355469 279.941406 281.976562 C 286.578125 274.34375 289.875 263.035156 289.875 248.066406 Z M 256.105469 282.160156 C 249.285156 282.160156 244.304688 279.644531 241.117188 274.636719 L 241.148438 274.558594 C 237.699219 269.152344 235.980469 260.417969 235.980469 248.449219 C 235.980469 227.488281 242.480469 217.007812 255.449219 217.007812 C 262.238281 217.007812 267.25 219.523438 270.421875 224.53125 C 273.855469 229.972656 275.574219 238.613281 275.574219 250.457031 C 275.574219 271.570312 269.074219 282.160156 256.105469 282.160156 Z M 256.105469 282.160156 " fill-opacity="1" fill-rule="nonzero"/><path fill="#de8a03" d="M 205.894531 250.640625 C 205.894531 250.640625 193.722656 243.792969 187.699219 240.558594 C 181.078125 236.945312 177.492188 232.699219 177.492188 227.78125 C 177.492188 224.5625 178.945312 221.941406 181.292969 219.890625 C 183.621094 217.804688 186.980469 216.792969 191.316406 216.792969 C 196.667969 216.792969 202.105469 217.960938 207.625 220.257812 L 210.890625 213.101562 C 204.453125 208.980469 197.277344 206.941406 189.429688 206.941406 C 181.765625 206.941406 175.558594 208.996094 170.730469 213.179688 C 165.933594 217.316406 163.527344 222.722656 163.527344 229.496094 C 163.527344 237.632812 166.746094 242.582031 173.214844 247.210938 C 173.214844 247.210938 185.09375 253.890625 191.039062 257.09375 C 197.449219 260.632812 200.972656 264.84375 200.972656 269.808594 C 200.972656 273.730469 199.257812 276.84375 196.375 279.0625 C 193.460938 281.269531 189.460938 282.375 184.375 282.375 C 178.902344 282.375 172.847656 280.75 166.132812 277.441406 L 162.5 284.59375 C 170.300781 289.757812 178.289062 292.347656 186.609375 292.347656 C 195.515625 292.347656 202.550781 290.097656 207.824219 285.574219 C 213.097656 281.070312 215.734375 275.265625 215.734375 268.183594 L 215.824219 268.230469 C 215.824219 260.125 212.53125 255.238281 205.894531 250.640625 Z M 205.894531 250.640625 " fill-opacity="1" fill-rule="nonzero"/><path fill="#105e86" d="M 255.019531 92.730469 C 253.257812 92.730469 252.0625 92.945312 250.820312 93.222656 L 250.820312 93.421875 L 251.035156 93.421875 C 251.863281 94.984375 253.273438 96.132812 254.3125 97.527344 C 255.140625 99.136719 255.847656 100.746094 256.675781 102.339844 L 256.890625 102.109375 C 258.328125 101.113281 259.035156 99.519531 259.035156 97.097656 C 258.421875 96.394531 258.328125 95.6875 257.808594 95 C 257.195312 93.988281 255.878906 93.5 255.050781 92.703125 Z M 255.019531 92.730469 " fill-opacity="1" fill-rule="nonzero"/><path fill="#105e86" d="M 366.757812 206.605469 C 363.785156 202.699219 360.089844 199.28125 356.105469 196.445312 C 352.824219 194.257812 345.652344 191.175781 344.304688 187.5 L 344.105469 187.285156 C 346.34375 187.085938 349.007812 186.289062 351.15625 185.691406 C 354.632812 184.785156 357.824219 184.984375 361.425781 184.097656 C 363.050781 183.699219 364.691406 183.195312 366.328125 182.6875 L 366.328125 181.785156 C 364.492188 179.976562 363.109375 177.523438 361.210938 175.839844 C 356 171.394531 350.21875 167.089844 344.289062 163.457031 C 341.070312 161.4375 336.992188 160.148438 333.605469 158.433594 C 332.378906 157.835938 330.324219 157.527344 329.621094 156.519531 C 327.78125 154.328125 326.707031 151.398438 325.40625 148.78125 C 322.460938 143.25 319.578125 137.121094 317.019531 131.28125 C 315.179688 127.34375 314.0625 123.421875 311.808594 119.804688 C 301.234375 102.707031 289.78125 92.332031 272.171875 82.207031 C 268.386719 80.105469 263.847656 79.203125 259.050781 78.085938 C 256.492188 77.960938 253.929688 77.777344 251.386719 77.671875 C 249.699219 76.964844 248.074219 75.050781 246.632812 74.132812 C 240.808594 70.515625 225.726562 62.699219 221.4375 73.042969 C 218.675781 79.570312 225.527344 86.003906 227.902344 89.316406 C 229.667969 91.613281 231.890625 94.25 233.117188 96.839844 C 233.835938 98.585938 234.035156 100.378906 234.753906 102.199219 C 236.378906 106.628906 237.929688 111.546875 240.074219 115.699219 C 241.191406 117.800781 242.417969 120.019531 243.859375 121.90625 C 244.6875 123.007812 246.097656 123.515625 246.421875 125.320312 C 244.980469 127.375 244.886719 130.347656 244.058594 132.84375 C 240.382812 144.230469 241.820312 158.308594 247.035156 166.691406 C 248.671875 169.1875 252.582031 174.71875 257.808594 172.605469 C 262.40625 170.796875 261.394531 165.082031 262.714844 160.042969 C 263.019531 158.832031 262.820312 158.035156 263.449219 157.222656 L 263.449219 157.453125 C 264.890625 160.285156 266.332031 162.96875 267.648438 165.804688 C 270.808594 170.738281 276.324219 175.855469 280.9375 179.269531 C 283.390625 181.078125 285.335938 184.203125 288.402344 185.324219 L 288.402344 185.015625 L 288.171875 185.015625 C 287.515625 184.144531 286.640625 183.730469 285.8125 183.007812 C 283.972656 181.203125 281.902344 178.996094 280.449219 176.988281 C 276.15625 171.320312 272.371094 165.097656 268.996094 158.664062 C 267.3125 155.507812 265.902344 152.105469 264.554688 148.996094 C 263.941406 147.800781 263.941406 145.992188 262.914062 145.378906 C 261.378906 147.570312 259.125 149.484375 258.007812 152.195312 C 256.0625 156.53125 255.863281 161.851562 255.125 167.398438 C 254.710938 167.503906 254.910156 167.398438 254.710938 167.609375 C 251.433594 166.828125 250.3125 163.488281 249.085938 160.683594 C 246.023438 153.546875 245.515625 142.070312 248.167969 133.824219 C 248.886719 131.726562 251.953125 125.078125 250.726562 123.054688 C 250.082031 121.140625 248.058594 120.050781 246.941406 118.503906 C 245.609375 116.632812 244.183594 114.214844 243.261719 112.082031 C 240.808594 106.460938 239.582031 100.222656 236.917969 94.601562 C 235.691406 91.996094 233.542969 89.269531 231.796875 86.878906 C 229.851562 84.167969 227.703125 82.265625 226.15625 79.050781 C 225.652344 77.945312 224.929688 76.121094 225.742188 74.925781 C 225.957031 74.117188 226.386719 73.792969 227.183594 73.578125 C 228.53125 72.492188 232.320312 73.917969 233.652344 74.515625 C 237.4375 76.015625 240.625 77.425781 243.800781 79.539062 C 245.238281 80.535156 246.789062 82.433594 248.628906 82.941406 L 250.773438 82.941406 C 254.054688 83.644531 257.746094 83.15625 260.8125 84.042969 C 266.253906 85.761719 271.160156 88.257812 275.558594 90.96875 C 288.984375 99.335938 300.023438 111.195312 307.515625 125.351562 C 308.742188 127.667969 309.28125 129.796875 310.398438 132.203125 C 312.542969 137.167969 315.195312 142.175781 317.371094 146.972656 C 319.519531 151.707031 321.585938 156.546875 324.667969 160.472656 C 326.203125 162.570312 332.363281 163.671875 335.121094 164.777344 C 337.160156 165.679688 340.332031 166.507812 342.171875 167.609375 C 345.699219 169.710938 349.132812 172.132812 352.441406 174.445312 C 354.128906 175.59375 359.234375 178.105469 359.539062 180.128906 C 351.339844 179.914062 344.976562 180.726562 339.660156 182.964844 C 338.125 183.5625 335.675781 183.5625 335.460938 185.476562 C 336.300781 186.273438 336.425781 187.574219 337.144531 188.695312 C 338.371094 190.703125 340.488281 193.398438 342.449219 194.824219 C 344.59375 196.476562 346.742188 198.070312 348.992188 199.480469 C 352.980469 201.886719 357.5 203.3125 361.410156 205.730469 C 363.632812 207.140625 365.902344 208.933594 368.152344 210.4375 C 369.273438 211.1875 369.992188 212.550781 371.433594 213.027344 L 371.433594 212.734375 C 370.730469 211.832031 370.515625 210.527344 369.824219 209.515625 C 368.796875 208.503906 367.769531 207.601562 366.757812 206.605469 Z M 366.757812 206.605469 " fill-opacity="1" fill-rule="nonzero"/></svg>