<svg xmlns="http://www.w3.org/2000/svg" xmlns:xlink="http://www.w3.org/1999/xlink" width="500" zoomAndPan="magnify" viewBox="0 0 375 374.999991" height="500" preserveAspectRatio="xMidYMid meet" version="1.0"><path fill="#c53735" d="M 166.671875 154.878906 L 187.5 154.878906 L 187.5 197.257812 L 166.671875 197.257812 Z M 166.671875 154.878906 " fill-opacity="1" fill-rule="nonzero"/><path fill="#c53735" d="M 375 112.5 L 0 112.5 L 0 239.65625 L 104.171875 239.65625 L 104.171875 260.847656 L 187.5 260.847656 L 187.5 239.65625 L 375 239.65625 Z M 104.171875 218.464844 L 83.328125 218.464844 L 83.328125 154.878906 L 62.5 154.878906 L 62.5 218.449219 L 20.828125 218.449219 L 20.828125 133.6875 L 104.15625 133.6875 L 104.15625 218.464844 Z M 208.328125 218.464844 L 166.65625 218.464844 L 166.65625 239.65625 L 125 239.65625 L 125 133.6875 L 208.328125 133.6875 Z M 354.171875 218.464844 L 333.34375 218.464844 L 333.34375 154.878906 L 312.5 154.878906 L 312.5 218.449219 L 291.671875 218.449219 L 291.671875 154.878906 L 270.84375 154.878906 L 270.84375 218.449219 L 229.171875 218.449219 L 229.171875 133.6875 L 354.171875 133.6875 Z M 354.171875 218.464844 " fill-opacity="1" fill-rule="nonzero"/></svg>