<svg width="24" height="24" viewBox="0 0 24 24" fill="none" xmlns="http://www.w3.org/2000/svg">
<g clip-path="url(#clip0_116_3)">
<path d="M15.0172 22.2857C16.0729 22.9667 17.3309 23.2635 18.5797 23.1262C19.8285 22.9888 20.992 22.4256 21.8744 21.5314L22.6458 20.7771C22.984 20.4312 23.1734 19.9666 23.1734 19.4828C23.1734 18.999 22.984 18.5345 22.6458 18.1885L19.3715 14.9485C19.0285 14.6114 18.5668 14.4225 18.0858 14.4225C17.6048 14.4225 17.1431 14.6114 16.8001 14.9485V14.9485C16.4542 15.2867 15.9896 15.4761 15.5058 15.4761C15.022 15.4761 14.5574 15.2867 14.2115 14.9485L9.06866 9.80567C8.89709 9.6366 8.76086 9.43511 8.66786 9.21292C8.57487 8.99072 8.52699 8.75225 8.52699 8.51139C8.52699 8.27052 8.57487 8.03205 8.66786 7.80985C8.76086 7.58766 8.89709 7.38617 9.06866 7.2171V7.2171C9.40578 6.87407 9.59468 6.41235 9.59468 5.93139C9.59468 5.45042 9.40578 4.9887 9.06866 4.64567L5.81151 1.38853C5.46558 1.05033 5.00101 0.860962 4.51723 0.860962C4.03344 0.860962 3.56887 1.05033 3.22294 1.38853L2.46866 2.15996C1.57439 3.04237 1.01123 4.20579 0.873861 5.45459C0.736493 6.70338 1.0333 7.9614 1.71437 9.0171C5.26302 14.2469 9.77826 18.7505 15.0172 22.2857V22.2857Z" fill="white" stroke="white" stroke-linecap="round" stroke-linejoin="round"/>
</g>
<defs>
<clipPath id="clip0_116_3">
<rect width="24" height="24" fill="white"/>
</clipPath>
</defs>
</svg>
