<svg xmlns="http://www.w3.org/2000/svg" xmlns:xlink="http://www.w3.org/1999/xlink" width="500" zoomAndPan="magnify" viewBox="0 0 375 374.999991" height="500" preserveAspectRatio="xMidYMid meet" version="1.0"><path fill="#455a64" d="M 187.238281 -0.261719 C 83.679688 -0.261719 -0.261719 83.679688 -0.261719 187.238281 C -0.261719 290.792969 83.679688 374.738281 187.238281 374.738281 C 290.792969 374.738281 374.738281 290.792969 374.738281 187.238281 C 374.738281 83.679688 290.792969 -0.261719 187.238281 -0.261719 Z M 293.585938 105.207031 C 284.484375 105.523438 277.902344 100.164062 277.902344 92.007812 C 277.902344 85.226562 282.148438 80.839844 282.101562 79.125 C 281.925781 73.996094 274.039062 73.789062 271.894531 73.902344 C 242.363281 74.851562 235.546875 112.304688 229.246094 144.261719 L 226.789062 157.613281 C 243.796875 160.070312 255.871094 157.050781 262.613281 152.738281 C 272.101562 146.671875 261.300781 141.554688 261.496094 134.476562 C 261.742188 125.558594 269.820312 121.359375 274.976562 121.210938 C 282.195312 121.039062 289.660156 128.859375 289.660156 138.992188 C 289.660156 151.378906 269.664062 169.179688 236.316406 168.46875 C 232.246094 168.375 228.523438 168.09375 225.019531 167.691406 L 218.398438 203.34375 C 212.765625 229.273438 205.273438 264.710938 178.5 295.632812 C 155.503906 322.59375 132.160156 326.792969 121.695312 327.132812 C 102.140625 327.796875 84.273438 315.769531 83.8125 302.054688 C 83.363281 288.75 94.695312 280.011719 102.535156 280.011719 C 113.980469 280.011719 120.609375 288.335938 120.898438 296.953125 C 121.164062 304.21875 117.308594 306.488281 114.769531 307.855469 C 113.0625 309.207031 110.492188 310.574219 110.585938 313.574219 C 110.652344 314.859375 112.050781 317.804688 116.390625 317.664062 C 124.660156 317.382812 133.03125 315.28125 139.320312 310.753906 C 158.371094 295.097656 165.402344 269.476562 175.011719 219.804688 L 177.027344 207.777344 C 180.300781 191.617188 185.464844 169.527344 191.007812 151.59375 C 177.570312 141.617188 169.820312 129.683594 151.753906 124.855469 C 139.367188 121.546875 133.773438 122.605469 128.464844 129.226562 C 125.644531 132.742188 124.667969 136.734375 124.667969 140.617188 C 124.667969 155.523438 153.722656 184.882812 153.722656 202.679688 C 153.722656 204.777344 153.476562 206.933594 153.085938 209.183594 C 149.070312 232.601562 120.777344 250.574219 87.328125 240.429688 C 58.78125 231.742188 52.519531 211.566406 55.960938 200.570312 C 58.976562 190.914062 68.0625 187.660156 75.683594 189.957031 C 83.839844 192.441406 87.402344 202.78125 84.320312 211.425781 C 84.039062 212.203125 83.925781 212.492188 83.0625 214.292969 C 82.117188 216.355469 80.363281 218.175781 79.601562 220.59375 C 77.757812 226.480469 85.960938 230.664062 91.667969 232.40625 C 104.445312 236.289062 116.898438 229.695312 120.074219 219.507812 C 123 210.140625 118.761719 203.605469 116.257812 201.09375 C 116.257812 201.09375 92.570312 170.417969 92.570312 153.449219 C 92.570312 149.746094 92.914062 145.875 94.152344 141.917969 C 96.449219 134.597656 101.257812 126.804688 108.261719 121.648438 C 123.027344 110.792969 137.625 109.445312 152.925781 113.773438 C 172.707031 119.398438 181.921875 131.867188 194.25 141.835938 C 201.148438 121.882812 208.679688 107.738281 223.070312 91.265625 C 236.042969 76.238281 253.507812 65.371094 273.488281 64.679688 C 293.457031 64.039062 307.949219 73.039062 308.457031 87.179688 C 308.671875 93.207031 305.765625 104.8125 293.585938 105.207031 Z M 293.585938 105.207031 " fill-opacity="1" fill-rule="nonzero"/></svg>