<svg xmlns="http://www.w3.org/2000/svg" xmlns:xlink="http://www.w3.org/1999/xlink" width="500" zoomAndPan="magnify" viewBox="0 0 375 374.999991" height="500" preserveAspectRatio="xMidYMid meet" version="1.0"><path fill="#000000" d="M 48.453125 100.941406 L 48.46875 100.925781 L 48.453125 100.925781 Z M 48.453125 100.941406 " fill-opacity="1" fill-rule="nonzero"/><path fill="#1b75bb" d="M 193.875 284.84375 L 281.703125 237.359375 L 281.703125 143.285156 L 193.875 193.140625 Z M 193.875 284.84375 " fill-opacity="1" fill-rule="nonzero"/><path fill="#8ad0f3" d="M 346.539062 106.476562 L 294.234375 136.136719 L 294.234375 242.9375 L 346.539062 272.648438 Z M 346.539062 106.476562 " fill-opacity="1" fill-rule="nonzero"/><path fill="#1b75bb" d="M 275.796875 132.402344 L 187.609375 84.714844 L 99.4375 132.402344 L 187.609375 182.449219 Z M 275.796875 132.402344 " fill-opacity="1" fill-rule="nonzero"/><path fill="#8ad0f3" d="M 282.914062 250.75 L 193.875 298.902344 L 193.875 360.800781 L 336.769531 281.34375 Z M 282.914062 250.75 " fill-opacity="1" fill-rule="nonzero"/><path fill="#8ad0f3" d="M 181.328125 298.902344 L 92.289062 250.75 L 38.433594 281.34375 L 181.328125 360.800781 Z M 181.328125 298.902344 " fill-opacity="1" fill-rule="nonzero"/><path fill="#8ad0f3" d="M 28.648438 272.648438 L 80.953125 242.9375 L 80.953125 136.136719 L 28.648438 106.476562 Z M 28.648438 272.648438 " fill-opacity="1" fill-rule="nonzero"/><path fill="#8ad0f3" d="M 86.722656 125.195312 L 181.3125 74.035156 L 181.3125 14.199219 L 34.773438 95.703125 Z M 86.722656 125.195312 " fill-opacity="1" fill-rule="nonzero"/><path fill="#1b75bb" d="M 181.328125 193.140625 L 93.5 143.285156 L 93.5 237.359375 L 181.328125 284.84375 Z M 181.328125 193.140625 " fill-opacity="1" fill-rule="nonzero"/><path fill="#8ad0f3" d="M 193.875 74.035156 L 288.464844 125.210938 L 340.414062 95.703125 L 193.875 14.199219 Z M 193.875 74.035156 " fill-opacity="1" fill-rule="nonzero"/><path fill="#000000" d="M 187.59375 373.480469 C 185.625 373.480469 183.671875 372.984375 181.902344 371.992188 L 22.957031 282.875 C 19.285156 280.816406 17.019531 276.941406 17.019531 272.742188 L 17.019531 102.257812 C 17.019531 98.058594 19.285156 94.183594 22.957031 92.125 L 181.902344 3.007812 C 185.453125 1.039062 189.75 1.039062 193.285156 3.007812 L 352.230469 92.125 C 355.902344 94.183594 358.167969 98.058594 358.167969 102.257812 L 358.167969 272.742188 C 358.167969 276.941406 355.902344 280.816406 352.230469 282.875 L 193.285156 371.992188 C 191.515625 372.984375 189.5625 373.480469 187.59375 373.480469 Z M 40.28125 265.9375 L 187.59375 348.527344 L 334.90625 265.9375 L 334.90625 109.0625 L 187.59375 26.472656 L 40.28125 109.0625 Z M 346.539062 272.742188 L 346.691406 272.742188 Z M 346.539062 272.742188 " fill-opacity="1" fill-rule="nonzero"/><path fill="#000000" d="M 28.664062 284.363281 C 24.539062 284.363281 20.570312 282.179688 18.445312 278.320312 C 15.375 272.695312 17.4375 265.628906 23.066406 262.527344 L 85.09375 228.585938 C 90.753906 225.5 97.808594 227.59375 100.894531 233.203125 C 103.964844 238.832031 101.902344 245.898438 96.273438 248.996094 L 34.246094 282.9375 C 32.464844 283.914062 30.542969 284.363281 28.664062 284.363281 Z M 28.664062 284.363281 " fill-opacity="1" fill-rule="nonzero"/><path fill="#000000" d="M 187.609375 199.125 C 183.421875 199.125 179.40625 196.875 177.3125 192.941406 C 174.320312 187.28125 176.476562 180.246094 182.152344 177.226562 L 279.066406 125.925781 L 340.941406 92.046875 C 346.617188 88.960938 353.640625 91.054688 356.742188 96.664062 C 359.8125 102.289062 357.75 109.359375 352.121094 112.457031 L 290.09375 146.398438 L 193.019531 197.761719 C 191.300781 198.691406 189.4375 199.125 187.609375 199.125 Z M 187.609375 199.125 " fill-opacity="1" fill-rule="nonzero"/><path fill="#000000" d="M 187.59375 311.488281 C 185.515625 311.488281 183.4375 310.945312 181.609375 309.84375 L 84.691406 251.726562 C 81.203125 249.617188 79.046875 245.835938 79.046875 241.742188 L 79.046875 133.257812 C 79.046875 129.164062 81.203125 125.382812 84.691406 123.273438 L 181.609375 65.15625 C 185.269531 62.941406 189.902344 62.941406 193.5625 65.15625 L 290.480469 123.273438 C 293.984375 125.382812 296.140625 129.164062 296.140625 133.257812 L 296.140625 241.742188 C 296.140625 245.835938 293.984375 249.617188 290.496094 251.726562 L 193.578125 309.84375 C 191.75 310.945312 189.671875 311.488281 187.59375 311.488281 Z M 102.304688 235.15625 L 187.59375 286.300781 L 272.882812 235.15625 L 272.882812 139.84375 L 187.59375 88.699219 L 102.304688 139.84375 Z M 284.511719 241.742188 L 284.667969 241.742188 Z M 284.511719 241.742188 " fill-opacity="1" fill-rule="nonzero"/><path fill="#000000" d="M 187.578125 199.125 C 185.75 199.125 183.886719 198.691406 182.152344 197.773438 L 85.234375 146.476562 L 23.066406 112.457031 C 17.421875 109.371094 15.375 102.304688 18.445312 96.679688 C 21.515625 91.054688 28.570312 88.960938 34.230469 92.0625 L 96.257812 126.003906 L 193.019531 177.226562 C 198.695312 180.230469 200.867188 187.265625 197.859375 192.941406 C 195.78125 196.875 191.765625 199.125 187.578125 199.125 Z M 187.578125 199.125 " fill-opacity="1" fill-rule="nonzero"/><path fill="#000000" d="M 346.523438 284.363281 C 344.644531 284.363281 342.722656 283.914062 340.957031 282.9375 L 278.929688 248.996094 C 273.300781 245.914062 271.238281 238.847656 274.308594 233.203125 C 277.394531 227.59375 284.449219 225.5 290.109375 228.585938 L 352.136719 262.527344 C 357.765625 265.613281 359.828125 272.679688 356.757812 278.320312 C 354.617188 282.179688 350.648438 284.363281 346.523438 284.363281 Z M 346.523438 284.363281 " fill-opacity="1" fill-rule="nonzero"/><path fill="#000000" d="M 187.59375 373.480469 C 181.175781 373.480469 175.964844 368.273438 175.964844 361.855469 L 175.964844 187.5 C 175.964844 181.082031 181.175781 175.875 187.59375 175.875 C 194.011719 175.875 199.222656 181.082031 199.222656 187.5 L 199.222656 361.855469 C 199.222656 368.273438 194.011719 373.480469 187.59375 373.480469 Z M 187.59375 373.480469 " fill-opacity="1" fill-rule="nonzero"/><path fill="#000000" d="M 187.59375 86.761719 C 181.175781 86.761719 175.964844 81.554688 175.964844 75.136719 L 175.964844 13.144531 C 175.964844 6.726562 181.175781 1.519531 187.59375 1.519531 C 194.011719 1.519531 199.222656 6.726562 199.222656 13.144531 L 199.222656 75.136719 C 199.222656 81.554688 194.011719 86.761719 187.59375 86.761719 Z M 187.59375 86.761719 " fill-opacity="1" fill-rule="nonzero"/></svg>