<svg xmlns="http://www.w3.org/2000/svg" xmlns:xlink="http://www.w3.org/1999/xlink" width="500" zoomAndPan="magnify" viewBox="0 0 375 374.999991" height="500" preserveAspectRatio="xMidYMid meet" version="1.0"><path fill="#21759b" d="M 44.859375 187.492188 C 44.859375 243.953125 77.671875 292.738281 125.25 315.863281 L 57.210938 129.449219 C 49.296875 147.1875 44.859375 166.816406 44.859375 187.492188 Z M 44.859375 187.492188 " fill-opacity="1" fill-rule="nonzero"/><path fill="#21759b" d="M 283.785156 180.300781 C 283.785156 162.675781 277.453125 150.464844 272.023438 140.960938 C 264.796875 129.210938 258.015625 119.265625 258.015625 107.511719 C 258.015625 94.402344 267.960938 82.191406 281.96875 82.191406 C 282.601562 82.191406 283.199219 82.265625 283.816406 82.304688 C 258.433594 59.054688 224.625 44.863281 187.492188 44.863281 C 137.664062 44.863281 93.816406 70.433594 68.316406 109.15625 C 71.664062 109.253906 74.820312 109.328125 77.496094 109.328125 C 92.414062 109.328125 115.507812 107.519531 115.507812 107.519531 C 123.195312 107.070312 124.101562 118.359375 116.421875 119.273438 C 116.421875 119.273438 108.699219 120.179688 100.09375 120.628906 L 152.039062 275.128906 L 183.253906 181.515625 L 161.03125 120.628906 C 153.351562 120.179688 146.078125 119.273438 146.078125 119.273438 C 138.390625 118.824219 139.289062 107.070312 146.976562 107.519531 C 146.976562 107.519531 170.535156 109.328125 184.546875 109.328125 C 199.460938 109.328125 222.554688 107.519531 222.554688 107.519531 C 230.25 107.070312 231.148438 118.359375 223.46875 119.273438 C 223.46875 119.273438 215.730469 120.179688 207.140625 120.628906 L 258.691406 273.960938 L 272.917969 226.417969 C 279.097656 206.675781 283.785156 192.511719 283.785156 180.300781 Z M 283.785156 180.300781 " fill-opacity="1" fill-rule="nonzero"/><path fill="#21759b" d="M 189.996094 199.972656 L 147.203125 324.328125 C 159.984375 328.085938 173.496094 330.140625 187.492188 330.140625 C 204.105469 330.140625 220.035156 327.269531 234.863281 322.058594 C 234.480469 321.449219 234.136719 320.796875 233.851562 320.09375 Z M 189.996094 199.972656 " fill-opacity="1" fill-rule="nonzero"/><path fill="#21759b" d="M 312.652344 119.0625 C 313.265625 123.609375 313.613281 128.484375 313.613281 133.734375 C 313.613281 148.207031 310.914062 164.476562 302.765625 184.824219 L 259.199219 310.792969 C 301.605469 286.066406 330.128906 240.121094 330.128906 187.5 C 330.128906 162.699219 323.796875 139.378906 312.652344 119.0625 Z M 312.652344 119.0625 " fill-opacity="1" fill-rule="nonzero"/><path fill="#21759b" d="M 187.492188 21.234375 C 95.820312 21.234375 21.226562 95.820312 21.226562 187.492188 C 21.226562 279.179688 95.820312 353.765625 187.492188 353.765625 C 279.171875 353.765625 353.773438 279.1875 353.773438 187.492188 C 353.773438 95.820312 279.171875 21.234375 187.492188 21.234375 Z M 187.492188 346.148438 C 100.019531 346.148438 28.84375 274.972656 28.84375 187.492188 C 28.84375 100.019531 100.011719 28.851562 187.492188 28.851562 C 274.964844 28.851562 346.132812 100.019531 346.132812 187.492188 C 346.132812 274.980469 274.964844 346.148438 187.492188 346.148438 Z M 187.492188 346.148438 " fill-opacity="1" fill-rule="nonzero"/></svg>